<svg width="24.000000" height="24.000000" viewBox="0 0 24 24" fill="none" xmlns="http://www.w3.org/2000/svg" xmlns:xlink="http://www.w3.org/1999/xlink">
	<desc>
			Created with Pixso.
	</desc>
	<defs>
		<clipPath id="clip12_1507">
			<rect id="INFO ICON" width="24.000000" height="24.000000" fill="white" fill-opacity="0"/>
		</clipPath>
	</defs>
	<g clip-path="url(#clip12_1507)">
		<path id="Vector" d="M11 17L13 17L13 11L11 11L11 17ZM12 2C6.47 2 2 6.47 2 12C2 17.52 6.47 22 12 22C17.52 22 22 17.52 22 12C22 6.47 17.52 2 12 2ZM12 20C7.58 20 4 16.4 4 12C4 7.59 7.58 4 12 4C16.41 4 20 7.59 20 12C20 16.4 16.41 20 12 20ZM11 9L13 9L13 7L11 7L11 9Z" fill="#375BDE" fill-opacity="1.000000" fill-rule="nonzero"/>
	</g>
</svg>